<svg xmlns="http://www.w3.org/2000/svg" x="0px" y="0px" width="100" height="100" viewBox="0 0 32 32">
<path d="M 9 4 C 7.3550302 4 6 5.3550302 6 7 L 6 25 C 6 26.64497 7.3550302 28 9 28 L 26 28 L 26 20 L 24 20 L 24 22 L 9 22 C 8.6481575 22 8.3148915 22.07394 8 22.1875 L 8 7 C 8 6.4349698 8.4349698 6 9 6 L 24 6 L 24 8 L 26 8 L 26 4 L 9 4 z M 12.222656 10 L 10 16.841797 L 10 18 L 12 18 L 12 17.158203 L 12.050781 17 L 13.949219 17 L 14 17.158203 L 14 18 L 16 18 L 16 16.841797 L 13.777344 10 L 12.222656 10 z M 21 10 L 21 12 L 23.533203 12 L 21 16.222656 L 21 18 L 26 18 L 26 16 L 23.466797 16 L 26 11.777344 L 26 10 L 21 10 z M 17 13 L 17 15 L 20 15 L 20 13 L 17 13 z M 13 14.080078 L 13.298828 15 L 12.701172 15 L 13 14.080078 z M 9 24 L 24 24 L 24 26 L 9 26 C 8.4349698 26 8 25.56503 8 25 C 8 24.43497 8.4349698 24 9 24 z"></path>
</svg>