<svg xmlns="http://www.w3.org/2000/svg" x="0px" y="0px" width="100" height="100" viewBox="6 6 36 36">
<path fill="#3f51b5" d="M39,6v35c0,0,0,2-2,2H12.61c-1.05,0-3.41-0.41-3.59-4.05L9,39V11h0.02C9.18,6.07,11.79,5,14,5h24 C38.55,5,39,5.45,39,6z"></path><path fill="#ffe0b2" d="M36,36.001H12.607c-1.332,0-1.607,1.119-1.607,2.5c0,1.382,0.275,2.502,1.607,2.502L36,41.001V36.001 z"></path><path fill="#e0b990" d="M12.607,36.001c-1.167,0-1.522,0.858-1.593,2H36v-2H12.607z"></path><path fill="#283593" d="M38,36.001h-2V43c0.188,0,0.5,0,1,0c2,0,2-1.999,2-1.999v-5.998C39,35.554,38.553,36.001,38,36.001z"></path><path fill="#e8eaf6" d="M32.969,25.857c-0.093-0.185-0.16-0.416-0.202-0.692c-0.204,0.233-0.46,0.43-0.768,0.592 C31.691,25.919,31.314,26,30.869,26c-0.362,0-0.699-0.057-1.012-0.171s-0.584-0.274-0.814-0.478s-0.409-0.448-0.539-0.731 s-0.195-0.593-0.195-0.93c0-0.404,0.073-0.763,0.219-1.076c0.146-0.314,0.365-0.581,0.657-0.799 c0.292-0.219,0.655-0.385,1.088-0.499c0.433-0.114,0.938-0.171,1.513-0.171h0.897v-0.443c0-0.356-0.089-0.641-0.268-0.855 c-0.178-0.214-0.46-0.321-0.845-0.321c-0.338,0-0.604,0.084-0.796,0.25s-0.288,0.394-0.288,0.684h-2.01 c0-0.333,0.075-0.649,0.226-0.948c0.15-0.299,0.365-0.561,0.643-0.784s0.614-0.401,1.009-0.531C30.748,18.066,31.189,18,31.676,18 c0.435,0,0.839,0.057,1.21,0.171c0.371,0.114,0.691,0.284,0.96,0.51c0.269,0.226,0.478,0.508,0.629,0.848s0.226,0.735,0.226,1.187 v3.266c0,0.219,0.007,0.415,0.021,0.588c0.014,0.174,0.032,0.331,0.056,0.471c0.023,0.14,0.053,0.266,0.09,0.377 c0.037,0.112,0.081,0.218,0.132,0.317v0.122H32.969z M31.307,24.425c0.172,0,0.331-0.022,0.476-0.065 c0.146-0.043,0.277-0.099,0.393-0.167c0.116-0.069,0.217-0.149,0.303-0.239s0.154-0.182,0.205-0.277V22.35h-0.827 c-0.264,0-0.494,0.029-0.689,0.089c-0.195,0.059-0.355,0.143-0.48,0.249c-0.125,0.107-0.218,0.234-0.278,0.378 c-0.06,0.145-0.091,0.303-0.091,0.474c0,0.257,0.088,0.468,0.264,0.635C30.76,24.341,31.001,24.425,31.307,24.425z"></path><path fill="#283593" d="M12.607,41.003c-1.332,0-1.607-1.12-1.607-2.502c0-0.171,0.004-0.338,0.014-0.5l0,0 c0.01-0.154,0.026-0.301,0.047-0.443c0.007-0.046,0.017-0.088,0.026-0.132c0.017-0.093,0.036-0.185,0.06-0.271 c0.014-0.049,0.031-0.094,0.047-0.141c0.026-0.075,0.053-0.148,0.086-0.216c0.021-0.045,0.045-0.086,0.069-0.128 c0.036-0.062,0.076-0.12,0.12-0.175c0.029-0.036,0.059-0.072,0.091-0.105c0.05-0.05,0.106-0.094,0.164-0.135 c0.036-0.026,0.071-0.053,0.111-0.075c0.07-0.038,0.149-0.066,0.23-0.093c0.04-0.013,0.075-0.03,0.117-0.04 c0.129-0.03,0.269-0.048,0.427-0.048L15,36V5h-1c-2.21,0-4.82,1.07-4.98,6H9v28l0.02-0.05C9.2,42.59,11.56,43,12.61,43H15v-2 L12.607,41.003z"></path><path fill="#e8eaf6" d="M24.663,26H27l-3.992-11h-2.037L17,26h2.337l0.687-2.125h3.945L24.663,26z M21.989,17.78L23.363,22 h-2.717L21.989,17.78z"></path>
</svg>